<?xml version="1.0" encoding="UTF-8" standalone="no"?>
<svg
   xmlns:dc="http://purl.org/dc/elements/1.1/"
   xmlns:cc="http://creativecommons.org/ns#"
   xmlns:rdf="http://www.w3.org/1999/02/22-rdf-syntax-ns#"
   xmlns:svg="http://www.w3.org/2000/svg"
   xmlns="http://www.w3.org/2000/svg"
   xmlns:sodipodi="http://sodipodi.sourceforge.net/DTD/sodipodi-0.dtd"
   xmlns:inkscape="http://www.inkscape.org/namespaces/inkscape"
   inkscape:export-ydpi="768"
   inkscape:export-xdpi="768"
   inkscape:export-filename="E:\S  Y  N  T  X  Y\Dokument Desain\CARLOS\Files\Beginner - Security And Crime - 48x\Beginner - Security And Crime - Expanded - 48px\Export\1. Thief.png"
   sodipodi:docname="1. Thief.svg"
   inkscape:version="1.0 (4035a4fb49, 2020-05-01)"
   id="svg979"
   version="1.1"
   viewBox="0 0 16.933334 16.933333"
   height="48pt"
   width="48pt">
  <defs
     id="defs973" />
  <sodipodi:namedview
     inkscape:snap-nodes="false"
     inkscape:bbox-nodes="true"
     inkscape:snap-bbox="true"
     inkscape:document-rotation="0"
     inkscape:window-maximized="1"
     inkscape:window-y="-8"
     inkscape:window-x="-8"
     inkscape:window-height="715"
     inkscape:window-width="1366"
     units="pt"
     showgrid="false"
     inkscape:current-layer="layer1"
     inkscape:document-units="pt"
     inkscape:cy="30.473392"
     inkscape:cx="4.1632981"
     inkscape:zoom="6.0435533"
     inkscape:pageshadow="2"
     inkscape:pageopacity="0.0"
     borderopacity="1.0"
     bordercolor="#666666"
     pagecolor="#ffffff"
     id="base">
    <inkscape:grid
       id="grid1526"
       type="xygrid" />
    <sodipodi:guide
       inkscape:locked="false"
       id="guide1528"
       orientation="56.666615,0"
       position="0.97013909,15.963209" />
    <sodipodi:guide
       inkscape:locked="false"
       id="guide1530"
       orientation="0,56.666667"
       position="0.97013909,0.97016731" />
    <sodipodi:guide
       inkscape:locked="false"
       id="guide1532"
       orientation="-56.666615,0"
       position="15.963195,0.97016731" />
    <sodipodi:guide
       inkscape:locked="false"
       id="guide1534"
       orientation="0,-56.666667"
       position="15.963195,15.963209" />
  </sodipodi:namedview>
  <metadata
     id="metadata976">
    <rdf:RDF>
      <cc:Work
         rdf:about="">
        <dc:format>image/svg+xml</dc:format>
        <dc:type
           rdf:resource="http://purl.org/dc/dcmitype/StillImage" />
        <dc:title />
      </cc:Work>
    </rdf:RDF>
  </metadata>
  <g
     transform="translate(0,-280.06668)"
     id="layer1"
     inkscape:groupmode="layer"
     inkscape:label="Layer 1">
    <path
       id="path440"
       style="color:#000000;font-style:normal;font-variant:normal;font-weight:normal;font-stretch:normal;font-size:medium;line-height:normal;font-family:sans-serif;font-variant-ligatures:normal;font-variant-position:normal;font-variant-caps:normal;font-variant-numeric:normal;font-variant-alternates:normal;font-variant-east-asian:normal;font-feature-settings:normal;font-variation-settings:normal;text-indent:0;text-align:start;text-decoration:none;text-decoration-line:none;text-decoration-style:solid;text-decoration-color:#000000;letter-spacing:normal;word-spacing:normal;text-transform:none;writing-mode:lr-tb;direction:ltr;text-orientation:mixed;dominant-baseline:auto;baseline-shift:baseline;text-anchor:start;white-space:normal;shape-padding:0;shape-margin:0;inline-size:0;clip-rule:nonzero;display:inline;overflow:visible;visibility:visible;opacity:1;isolation:auto;mix-blend-mode:normal;color-interpolation:sRGB;color-interpolation-filters:linearRGB;solid-color:#000000;solid-opacity:1;vector-effect:none;fill:#000000;fill-opacity:1;fill-rule:nonzero;stroke:none;stroke-width:0.651924;stroke-linecap:round;stroke-linejoin:round;stroke-miterlimit:4;stroke-dasharray:none;stroke-dashoffset:0;stroke-opacity:1;color-rendering:auto;image-rendering:auto;shape-rendering:auto;text-rendering:auto;enable-background:accumulate;stop-color:#000000;stop-opacity:1"
       d="m 8.4653965,281.03691 c -0.9567535,0 -1.6425806,0.17261 -2.1321198,0.4622 -0.4895394,0.2896 -0.7669297,0.70114 -0.892575,1.09948 -0.1409687,0.44691 -0.1089848,0.86202 -0.054752,1.15487 -0.341318,0.0855 -0.6833009,0.18522 -1.0256359,0.30051 -0.1146569,0.0379 -0.1989312,0.13619 -0.219004,0.25529 -0.1178674,0.69245 -0.0045,1.37975 0.2883981,2.03663 -0.052722,0.26328 -0.0834,0.5341 -0.0834,0.81235 3.2e-6,1.72273 1.0624825,3.20043 2.5663142,3.81541 -1.4069003,0.48513 -2.5331247,1.59714 -3.0800855,2.93684 -0.00355,0.009 -0.00671,0.0169 -0.00955,0.0255 -0.2254747,0.56089 -0.3528215,1.15962 -0.3527041,1.7692 6.519e-4,0.18002 0.1472174,0.32538 0.3272363,0.32469 h 9.3382992 c 0.180016,6.9e-4 0.326513,-0.14467 0.327233,-0.32469 -1.17e-4,-0.60633 -0.126701,-1.20198 -0.350151,-1.76032 -0.0045,-0.015 -0.01,-0.0297 -0.01656,-0.044 -0.548998,-1.33552 -1.673642,-2.44328 -3.077537,-2.92729 1.504246,-0.61509 2.568221,-2.09286 2.568221,-3.81541 0,-0.28075 -0.02969,-0.55451 -0.0834,-0.81999 0.274591,-0.6267 0.413816,-1.30641 0.285853,-2.03154 -0.02093,-0.11815 -0.105058,-0.21521 -0.219008,-0.25274 -0.339945,-0.11199 -0.681178,-0.20997 -1.023086,-0.29477 0.0545,-0.29297 0.0879,-0.71044 -0.05475,-1.1606 -0.126203,-0.39826 -0.402739,-0.80996 -0.892575,-1.09949 -0.486459,-0.28752 -1.169095,-0.45921 -2.1155677,-0.46156 -0.00636,-4e-4 -0.012745,-6.2e-4 -0.019102,-6.6e-4 z m 0,0.65192 c 0.8777339,0 1.4456996,0.15973 1.8023415,0.37052 0.356644,0.21081 0.518983,0.46777 0.604176,0.7366 0.0951,0.30012 0.07324,0.60328 0.03629,0.82255 -1.6291115,-0.32122 -3.2868722,-0.31769 -4.8811517,-0.007 -0.036119,-0.21964 -0.056764,-0.52107 0.036929,-0.8181 0.08477,-0.26874 0.2454199,-0.52332 0.6016278,-0.73404 0.3562046,-0.21073 0.9220614,-0.37053 1.7997914,-0.37053 z m 0.024838,2.37214 c 0.2684982,8.5e-4 0.5363378,0.0126 0.8040796,0.0318 0.111795,0.14555 0.1935366,0.42957 0.1795333,0.7627 -0.014473,0.34447 -0.1392672,0.69358 -0.2508374,0.86965 -0.2634033,-0.0111 -0.5264936,-0.0196 -0.7888017,-0.0203 -0.2703561,-8.5e-4 -0.5399299,0.006 -0.8091743,0.0153 -0.1106579,-0.17809 -0.2326944,-0.5238 -0.2470172,-0.86457 -0.013886,-0.33034 0.066001,-0.61222 0.1763486,-0.75887 0.3125974,-0.0243 0.624442,-0.0366 0.9358691,-0.0356 z m 1.5623225,0.11137 c 0.235188,0.032 0.470017,0.0692 0.704765,0.11519 h 6.52e-4 c 0.05178,0.23218 0.06672,0.52615 0.02927,0.80345 -0.0399,0.29554 -0.14297,0.56057 -0.262298,0.72768 -0.192852,-0.0197 -0.385199,-0.0352 -0.577435,-0.0496 0.108826,-0.26879 0.162681,-0.57489 0.175713,-0.88493 0.01,-0.23692 -0.0084,-0.48326 -0.07067,-0.71177 z m -3.2557988,0.009 c -0.060264,0.22603 -0.078586,0.469 -0.068758,0.70286 0.012875,0.30664 0.066124,0.60935 0.1725315,0.87601 -0.2079342,0.0144 -0.4154318,0.0313 -0.622636,0.0516 -0.1164173,-0.16766 -0.215363,-0.4296 -0.2546577,-0.72067 -0.035941,-0.26622 -0.025784,-0.54965 0.020372,-0.77734 0.2515057,-0.0525 0.5025648,-0.0966 0.7531479,-0.13243 z m 4.6462318,0.2623 c 0.222733,0.0564 0.445378,0.11716 0.66784,0.1859 0.04284,0.47464 -0.0097,0.92949 -0.185264,1.38088 -0.232019,-0.0393 -0.464117,-0.0787 -0.695217,-0.11014 0.102391,-0.22443 0.16786,-0.47042 0.201819,-0.72196 0.03321,-0.24602 0.03629,-0.49541 0.01082,-0.73468 z m -6.0825012,0.0324 c -0.021578,0.2292 -0.016396,0.46749 0.015288,0.70222 0.033368,0.24717 0.097499,0.48913 0.1967213,0.7105 -0.1965648,0.0255 -0.3924026,0.0572 -0.5882568,0.0878 -0.1720949,-0.45097 -0.2042707,-0.89494 -0.1642555,-1.34459 0.1803579,-0.0568 0.3606931,-0.1078 0.54051,-0.15598 z m 3.0711737,1.88065 c 1.0862549,0.004 2.1850955,0.11556 3.2927235,0.29986 l -3.1265611,0.83846 c -0.048644,0.0133 -0.093535,0.0377 -0.1311476,0.0713 -0.037612,-0.0336 -0.082505,-0.058 -0.1311475,-0.0713 l -3.2195124,-0.86367 c 1.0968748,-0.17092 2.1995744,-0.27852 3.3156451,-0.27503 z m -2.7573083,1.10012 2.2085189,0.59399 c -0.014571,0.0588 0.0058,0.12824 -0.054752,0.1929 -0.097968,0.1046 -0.3207596,0.21815 -0.5799808,0.32214 -0.8410109,-0.23987 -1.2899451,-0.63343 -1.5737861,-1.10903 z m 5.5846458,0 c -0.283863,0.47563 -0.734584,0.86916 -1.5756961,1.10903 C 9.4240827,288.46186 9.2012878,288.34835 9.10332,288.2437 9.042783,288.179 9.062513,288.10958 9.047932,288.0508 Z m -6.1875482,0.41318 c 0.4085021,0.62982 1.1060735,1.11045 2.1066558,1.37198 0.062989,0.0159 0.1292733,0.0126 0.1903585,-0.01 0.3864832,-0.13519 0.7059324,-0.2981 0.9358659,-0.5437 0.064518,-0.0689 0.1166515,-0.14792 0.1610708,-0.23173 0.044152,0.0838 0.096543,0.1628 0.1610708,0.23173 0.2299368,0.2456 0.5519284,0.40851 0.9384149,0.5437 0.061082,0.022 0.1273696,0.0254 0.1903553,0.01 1.0005822,-0.26153 1.6981572,-0.74216 2.1066562,-1.37198 -0.327396,1.57696 -1.72075,2.75794 -3.3964972,2.75794 -1.6757472,0 -3.0670209,-1.18098 -3.393951,-2.75794 z m 3.393951,3.48946 c 0.8233895,0 1.5871832,0.25824 2.2365322,0.68375 H 6.2295099 c 0.649114,-0.42565 1.4123471,-0.68375 2.2358929,-0.68375 z m -3.0176931,1.33567 h 6.0366613 c 0.292501,0.30422 0.542302,0.64673 0.74169,1.01545 H 4.7066551 c 0.1991823,-0.36872 0.4487583,-0.71123 0.7410546,-1.01545 z m -1.0300917,1.66737 h 8.09748 c 0.115612,0.32934 0.195241,0.66995 0.226009,1.01545 H 4.1922482 c 0.030641,-0.34549 0.1099211,-0.68612 0.2253698,-1.01545 z"
       sodipodi:nodetypes="cssccccsccccccccccsccccssccsssccsssscscscscscccsccsccsccsccccccsccsccccscccccsccsccccscccccscscccscsccscccccccccc" />
  </g>
</svg>
