<?xml version="1.0" encoding="iso-8859-1"?>
<!-- Uploaded to: SVG Repo, www.svgrepo.com, Generator: SVG Repo Mixer Tools -->
<!DOCTYPE svg PUBLIC "-//W3C//DTD SVG 1.1//EN" "http://www.w3.org/Graphics/SVG/1.1/DTD/svg11.dtd">
<svg fill="#000000" version="1.1" id="Capa_1" xmlns="http://www.w3.org/2000/svg" xmlns:xlink="http://www.w3.org/1999/xlink" 
	 width="800px" height="800px" viewBox="0 0 561.129 561.128"
	 xml:space="preserve">
<g>
	<g>
		<path d="M560.684,363.805l-65.062-196.984c-1.591-4.813-5.086-5.248-7.806-0.97l-38.033,59.783
			c-2.721,4.278-5.03,7.705-5.159,7.653c-0.076-0.03-0.153-0.061-0.232-0.092c-10.352-4.382-21.447-7.567-33.636-11.484
			c-6.019-2.069-12.562-3.498-19.195-5.227c-3.32-0.833-6.698-1.68-10.129-2.54c-1.71-0.425-3.433-0.854-5.168-1.285
			c-1.763-0.339-3.537-0.679-5.324-1.022c-7.114-1.334-14.422-2.708-21.895-4.109c-7.5-1.154-15.208-2.004-22.968-3.014
			c-7.73-1.163-15.735-1.414-23.725-2.004c-3.993-0.254-8.008-0.511-12.044-0.771c-4.046-0.031-8.112-0.061-12.197-0.095
			c-8.149-0.019-16.294-0.26-24.501,0.358c-4.082,0.217-8.173,0.435-12.271,0.655c-4.082,0.196-8.158,0.422-12.231,0.958
			c-8.14,0.949-16.239,1.714-24.248,2.846c-7.956,1.371-15.878,2.735-23.743,4.088c-7.791,1.643-15.45,3.534-22.986,5.266
			c-3.779,0.805-7.482,1.879-11.145,2.987c-3.657,1.077-7.283,2.148-10.885,3.21c-3.577,1.111-7.16,2.007-10.618,3.265
			c-3.455,1.239-6.875,2.466-10.26,3.681c-6.741,2.457-13.357,4.651-19.575,7.479c-6.227,2.666-12.286,5.257-18.146,7.763
			c-5.692,2.828-11.19,5.56-16.469,8.186c-2.708,1.359-5.361,2.69-7.953,3.99c-2.378,1.396-4.697,2.76-6.961,4.091
			c-4.526,2.659-8.819,5.184-12.855,7.552c-4.011,2.448-7.861,4.418-11.254,6.812c-3.384,2.344-6.494,4.495-9.299,6.438
			c-3.902,2.715-7.216,5.016-9.869,6.863c-4.162,2.895-3.7,3.752,1.025,1.919c2.98-1.157,6.689-2.595,11.056-4.287
			c3.081-1.193,6.493-2.513,10.208-3.95c3.669-1.466,8.011-2.521,12.445-3.941c4.48-1.355,9.248-2.794,14.272-4.314
			c2.512-0.759,5.089-1.54,7.729-2.335c2.549-0.579,5.156-1.169,7.818-1.775c5.483-1.249,11.197-2.549,17.112-3.896
			c5.964-1,12.126-2.032,18.464-3.094c6.264-1.214,12.852-1.741,19.492-2.487c3.314-0.358,6.665-0.719,10.046-1.083
			c3.369-0.386,6.836-0.395,10.282-0.612c3.442-0.168,6.916-0.34,10.413-0.511c3.482-0.202,6.986-0.364,10.539-0.251
			c7.087,0.101,14.202,0.062,21.35,0.27c7.127,0.483,14.309,0.973,21.521,1.462c7.173,0.71,14.333,1.778,21.441,2.629
			c3.559,0.364,7.096,1.031,10.615,1.723l10.517,1.977c6.995,1.117,13.84,3.048,20.612,4.707c3.372,0.841,6.732,1.677,10.077,2.512
			c3.289,1.037,6.563,2.071,9.816,3.1c6.472,2.115,12.897,3.822,18.996,6.369c6.13,2.393,12.161,4.559,17.953,6.945
			c5.701,2.589,11.279,5.119,16.708,7.586c1.347,0.609,2.687,1.215,4.015,1.818c1.294,0.688,2.582,1.373,3.858,2.053
			c2.543,1.35,5.046,2.678,7.51,3.984c4.893,2.652,9.7,4.924,14.029,7.764c2.678,1.66,5.318,3.256,7.868,4.803
			c4.332,2.633,5.597,8.305,2.876,12.584l-39.244,61.689c-2.721,4.277-0.848,7.258,4.188,6.658l205.993-24.551
			C559.481,373.01,562.271,368.62,560.684,363.805z"/>
	</g>
</g>
</svg>